<mxfile host="Electron" agent="Mozilla/5.0 (Windows NT 10.0; Win64; x64) AppleWebKit/537.36 (KHTML, like Gecko) draw.io/24.7.8 Chrome/128.0.6613.36 Electron/32.0.1 Safari/537.36" version="24.7.8">
  <diagram name="Page-1" id="ff44883e-f642-bcb2-894b-16b3d25a3f0b">
    <mxGraphModel dx="1395" dy="697" grid="1" gridSize="10" guides="1" tooltips="1" connect="1" arrows="1" fold="1" page="1" pageScale="1.5" pageWidth="1169" pageHeight="826" background="none" math="0" shadow="0">
      <root>
        <mxCell id="0" style=";html=1;" />
        <mxCell id="1" style=";html=1;" parent="0" />
        <mxCell id="PH42KQAgGoK6y8DrnF7h-33" value="" style="group" vertex="1" connectable="0" parent="1">
          <mxGeometry x="320" y="440" width="660" height="450" as="geometry" />
        </mxCell>
        <mxCell id="PH42KQAgGoK6y8DrnF7h-32" value="" style="rounded=1;whiteSpace=wrap;html=1;arcSize=1;" vertex="1" parent="PH42KQAgGoK6y8DrnF7h-33">
          <mxGeometry width="660" height="450" as="geometry" />
        </mxCell>
        <mxCell id="PH42KQAgGoK6y8DrnF7h-14" value="Home" style="ellipse;whiteSpace=wrap;html=1;" vertex="1" parent="PH42KQAgGoK6y8DrnF7h-33">
          <mxGeometry x="20" y="180" width="120" height="80" as="geometry" />
        </mxCell>
        <mxCell id="PH42KQAgGoK6y8DrnF7h-15" value="origin (cinematic)" style="ellipse;whiteSpace=wrap;html=1;" vertex="1" parent="PH42KQAgGoK6y8DrnF7h-33">
          <mxGeometry x="80" y="50" width="120" height="80" as="geometry" />
        </mxCell>
        <mxCell id="PH42KQAgGoK6y8DrnF7h-16" value="map(levels)" style="ellipse;whiteSpace=wrap;html=1;" vertex="1" parent="PH42KQAgGoK6y8DrnF7h-33">
          <mxGeometry x="280" y="20" width="120" height="80" as="geometry" />
        </mxCell>
        <mxCell id="PH42KQAgGoK6y8DrnF7h-17" value="trip" style="ellipse;whiteSpace=wrap;html=1;" vertex="1" parent="PH42KQAgGoK6y8DrnF7h-33">
          <mxGeometry x="478.52" y="69.72000000000003" width="120" height="80" as="geometry" />
        </mxCell>
        <mxCell id="PH42KQAgGoK6y8DrnF7h-18" value="jump(cinematic)" style="ellipse;whiteSpace=wrap;html=1;" vertex="1" parent="PH42KQAgGoK6y8DrnF7h-33">
          <mxGeometry x="518.52" y="229.72000000000003" width="120" height="80" as="geometry" />
        </mxCell>
        <mxCell id="PH42KQAgGoK6y8DrnF7h-20" value="arrival (cinematic)" style="ellipse;whiteSpace=wrap;html=1;" vertex="1" parent="PH42KQAgGoK6y8DrnF7h-33">
          <mxGeometry x="340" y="350" width="120" height="80" as="geometry" />
        </mxCell>
        <mxCell id="PH42KQAgGoK6y8DrnF7h-21" value="end" style="ellipse;whiteSpace=wrap;html=1;" vertex="1" parent="PH42KQAgGoK6y8DrnF7h-33">
          <mxGeometry x="130" y="320" width="120" height="80" as="geometry" />
        </mxCell>
        <mxCell id="PH42KQAgGoK6y8DrnF7h-22" value="" style="endArrow=classic;html=1;rounded=0;exitX=0.581;exitY=0.004;exitDx=0;exitDy=0;exitPerimeter=0;" edge="1" parent="PH42KQAgGoK6y8DrnF7h-33" source="PH42KQAgGoK6y8DrnF7h-14" target="PH42KQAgGoK6y8DrnF7h-15">
          <mxGeometry width="50" height="50" relative="1" as="geometry">
            <mxPoint x="-60" y="190" as="sourcePoint" />
            <mxPoint x="-10" y="140" as="targetPoint" />
          </mxGeometry>
        </mxCell>
        <mxCell id="PH42KQAgGoK6y8DrnF7h-23" value="" style="endArrow=classic;html=1;rounded=0;exitX=0.973;exitY=0.379;exitDx=0;exitDy=0;exitPerimeter=0;entryX=0;entryY=0.5;entryDx=0;entryDy=0;" edge="1" parent="PH42KQAgGoK6y8DrnF7h-33" source="PH42KQAgGoK6y8DrnF7h-15" target="PH42KQAgGoK6y8DrnF7h-16">
          <mxGeometry width="50" height="50" relative="1" as="geometry">
            <mxPoint x="160" y="80" as="sourcePoint" />
            <mxPoint x="270" as="targetPoint" />
          </mxGeometry>
        </mxCell>
        <mxCell id="PH42KQAgGoK6y8DrnF7h-24" value="" style="endArrow=classic;html=1;rounded=0;exitX=1.007;exitY=0.563;exitDx=0;exitDy=0;exitPerimeter=0;" edge="1" parent="PH42KQAgGoK6y8DrnF7h-33" source="PH42KQAgGoK6y8DrnF7h-16" target="PH42KQAgGoK6y8DrnF7h-17">
          <mxGeometry width="50" height="50" relative="1" as="geometry">
            <mxPoint x="390" y="47" as="sourcePoint" />
            <mxPoint x="508" y="30" as="targetPoint" />
          </mxGeometry>
        </mxCell>
        <mxCell id="PH42KQAgGoK6y8DrnF7h-25" value="" style="endArrow=classic;html=1;rounded=0;exitX=0.64;exitY=1.007;exitDx=0;exitDy=0;exitPerimeter=0;entryX=0.5;entryY=0;entryDx=0;entryDy=0;" edge="1" parent="PH42KQAgGoK6y8DrnF7h-33" source="PH42KQAgGoK6y8DrnF7h-17" target="PH42KQAgGoK6y8DrnF7h-18">
          <mxGeometry width="50" height="50" relative="1" as="geometry">
            <mxPoint x="568.52" y="169.72000000000003" as="sourcePoint" />
            <mxPoint x="695.52" y="214.72000000000003" as="targetPoint" />
          </mxGeometry>
        </mxCell>
        <mxCell id="PH42KQAgGoK6y8DrnF7h-26" value="" style="endArrow=classic;html=1;rounded=0;exitX=0;exitY=1;exitDx=0;exitDy=0;entryX=0.962;entryY=0.288;entryDx=0;entryDy=0;entryPerimeter=0;" edge="1" parent="PH42KQAgGoK6y8DrnF7h-33" source="PH42KQAgGoK6y8DrnF7h-18" target="PH42KQAgGoK6y8DrnF7h-20">
          <mxGeometry width="50" height="50" relative="1" as="geometry">
            <mxPoint x="513.52" y="329.72" as="sourcePoint" />
            <mxPoint x="420" y="370.28" as="targetPoint" />
          </mxGeometry>
        </mxCell>
        <mxCell id="PH42KQAgGoK6y8DrnF7h-27" value="" style="endArrow=classic;html=1;rounded=0;entryX=0.957;entryY=0.679;entryDx=0;entryDy=0;entryPerimeter=0;" edge="1" parent="PH42KQAgGoK6y8DrnF7h-33" source="PH42KQAgGoK6y8DrnF7h-20" target="PH42KQAgGoK6y8DrnF7h-21">
          <mxGeometry width="50" height="50" relative="1" as="geometry">
            <mxPoint x="260" y="340" as="sourcePoint" />
            <mxPoint x="283" y="419" as="targetPoint" />
          </mxGeometry>
        </mxCell>
        <mxCell id="PH42KQAgGoK6y8DrnF7h-28" value="" style="endArrow=classic;html=1;rounded=0;entryX=0.5;entryY=1;entryDx=0;entryDy=0;exitX=-0.005;exitY=0.343;exitDx=0;exitDy=0;exitPerimeter=0;" edge="1" parent="PH42KQAgGoK6y8DrnF7h-33" source="PH42KQAgGoK6y8DrnF7h-21" target="PH42KQAgGoK6y8DrnF7h-14">
          <mxGeometry width="50" height="50" relative="1" as="geometry">
            <mxPoint x="50" y="320" as="sourcePoint" />
            <mxPoint x="-120" y="328" as="targetPoint" />
          </mxGeometry>
        </mxCell>
        <mxCell id="PH42KQAgGoK6y8DrnF7h-30" value="" style="endArrow=classic;startArrow=classic;html=1;rounded=0;entryX=0;entryY=0.625;entryDx=0;entryDy=0;entryPerimeter=0;exitX=0;exitY=0.5;exitDx=0;exitDy=0;" edge="1" parent="PH42KQAgGoK6y8DrnF7h-33" source="PH42KQAgGoK6y8DrnF7h-18" target="PH42KQAgGoK6y8DrnF7h-17">
          <mxGeometry width="50" height="50" relative="1" as="geometry">
            <mxPoint x="498.52" y="269.72" as="sourcePoint" />
            <mxPoint x="468.48" y="127" as="targetPoint" />
            <Array as="points">
              <mxPoint x="458.52" y="199.72000000000003" />
            </Array>
          </mxGeometry>
        </mxCell>
      </root>
    </mxGraphModel>
  </diagram>
</mxfile>
